<?xml version="1.0" encoding="UTF-8" standalone="no"?>
<!-- Generator: Adobe Illustrator 17.0.0, SVG Export Plug-In . SVG Version: 6.00 Build 0)  -->

<svg
   version="1.1"
   id="Calque_10"
   x="0px"
   y="0px"
   width="478.44101"
   height="189.211"
   viewBox="0 0 478.441 189.21101"
   enable-background="new 0 0 566.929 283.464"
   xml:space="preserve"
   sodipodi:docname="logo_trim.svg"
   inkscape:version="1.2.1 (9c6d41e4, 2022-07-14)"
   xmlns:inkscape="http://www.inkscape.org/namespaces/inkscape"
   xmlns:sodipodi="http://sodipodi.sourceforge.net/DTD/sodipodi-0.dtd"
   xmlns="http://www.w3.org/2000/svg"
   xmlns:svg="http://www.w3.org/2000/svg"><defs
   id="defs53" /><sodipodi:namedview
   id="namedview51"
   pagecolor="#ffffff"
   bordercolor="#000000"
   borderopacity="0.25"
   inkscape:showpageshadow="2"
   inkscape:pageopacity="0.0"
   inkscape:pagecheckerboard="0"
   inkscape:deskcolor="#d1d1d1"
   showgrid="false"
   inkscape:zoom="1.1883995"
   inkscape:cx="243.60495"
   inkscape:cy="124.95798"
   inkscape:window-width="1088"
   inkscape:window-height="921"
   inkscape:window-x="832"
   inkscape:window-y="117"
   inkscape:window-maximized="0"
   inkscape:current-layer="Calque_10" />
<g
   id="g48"
   transform="translate(-44.244,-47.127)">
	<g
   id="g38">
		<path
   fill="#666666"
   d="m 75.276,203.085 v 7.596 c -2.926,-4.862 -8.238,-8.13 -14.316,-8.13 -9.216,0 -16.716,7.498 -16.716,16.718 0,9.218 7.5,16.714 16.716,16.714 6.077,0 11.39,-3.266 14.316,-8.128 v 7.66 h 2.447 v -32.43 z M 60.96,233.41 c -7.797,0 -14.141,-6.342 -14.141,-14.141 0,-7.798 6.344,-14.145 14.141,-14.145 7.799,0 14.143,6.347 14.143,14.145 0,7.799 -6.344,14.141 -14.143,14.141 z"
   id="path2" />
		<path
   fill="#666666"
   d="m 102.943,202.92 c -4.847,0 -9.151,2.28 -11.699,5.905 v -5.74 h -2.447 v 32.43 h 2.447 v -18.844 c 0,-6.445 5.03,-11.306 11.699,-11.306 7.324,0 11.696,4.104 11.696,10.974 v 19.176 h 2.446 v -19.176 c 0,-8.276 -5.419,-13.419 -14.142,-13.419 z"
   id="path4" />
		<path
   fill="#666666"
   d="m 148.868,230.632 c -1.618,1.677 -4.184,2.602 -7.227,2.602 -5.113,0 -7.816,-2.934 -7.816,-8.479 v -19.227 h 16.6 v -2.443 h -16.6 v -10.721 h -2.444 v 10.721 h -8.057 v 2.443 h 8.057 v 19.227 c 0,6.939 3.74,10.922 10.26,10.922 3.706,0 6.907,-1.203 9.015,-3.381 l 0.836,-0.863 -1.975,-1.475 z"
   id="path6" />
		<path
   fill="#666666"
   d="m 172.588,202.92 c -4.847,0 -9.153,2.283 -11.699,5.907 v -22.775 h -2.444 v 49.463 h 2.444 v -18.844 c 0,-6.445 5.029,-11.306 11.699,-11.306 7.325,0 11.697,4.104 11.697,10.974 v 19.176 h 2.444 v -19.176 c 0,-8.276 -5.418,-13.419 -14.141,-13.419 z"
   id="path8" />
		<rect
   x="198.25999"
   y="203.08501"
   fill="#666666"
   width="2.447"
   height="32.43"
   id="rect10" />
		<rect
   x="198.25999"
   y="190"
   fill="#666666"
   width="2.447"
   height="5.8639998"
   id="rect12" />
		<rect
   x="211.797"
   y="186.052"
   fill="#666666"
   width="2.448"
   height="49.463001"
   id="rect14" />
		<rect
   x="226.181"
   y="186.052"
   fill="#666666"
   width="2.448"
   height="49.463001"
   id="rect16" />
		<path
   fill="#666666"
   d="m 254.768,214.605 -3.26,-0.495 c -3.587,-0.529 -4.289,-1.211 -4.289,-2.206 0,-1.986 2.526,-2.693 4.893,-2.693 3.494,0 7.204,1.314 9.172,2.536 l 0.946,0.588 3.971,-7.199 -0.828,-0.534 c -3.477,-2.252 -8.211,-3.487 -13.328,-3.487 -8.683,0 -14.079,4.272 -14.079,11.152 0,5.608 4.121,9.261 11.608,10.285 l 3.277,0.425 c 2.075,0.29 4.546,0.949 4.546,2.438 0,1.747 -2.284,2.787 -6.111,2.787 -5.172,0 -7.924,-1.603 -9.745,-3.002 l -0.927,-0.711 -4.315,6.984 0.78,0.579 c 4.984,3.698 11,4.251 14.143,4.251 9.351,0 15.393,-4.455 15.393,-11.349 10e-4,-3.946 -2.056,-8.947 -11.847,-10.349 z"
   id="path18" />
		<path
   fill="#666666"
   d="m 288.287,201.081 c -10.254,0 -17.988,7.578 -17.988,17.626 0,10.051 7.734,17.631 17.988,17.631 10.277,0 18.028,-7.58 18.028,-17.631 0,-10.048 -7.751,-17.626 -18.028,-17.626 z m 0,26.661 c -5.1,0 -8.802,-3.8 -8.802,-9.035 0,-5.235 3.702,-9.034 8.802,-9.034 5.124,0 8.841,3.799 8.841,9.034 0,5.235 -3.717,9.035 -8.841,9.035 z"
   id="path20" />
		<rect
   x="312.689"
   y="186.052"
   fill="#666666"
   width="9.0209999"
   height="49.463001"
   id="rect22" />
		<path
   fill="#666666"
   d="m 352.329,220.483 c 0,4.814 -2.235,7.259 -6.639,7.259 -4.401,0 -6.632,-2.444 -6.632,-7.259 v -18.582 h -9.021 v 19.208 c 0,11.237 8.433,15.229 15.652,15.229 7.222,0 15.656,-3.991 15.656,-15.229 v -19.208 h -9.018 v 18.582 z"
   id="path24" />
		<path
   fill="#666666"
   d="m 390.902,225.767 c -1.988,1.255 -4.094,1.975 -5.779,1.975 -2.614,0 -3.939,-1.624 -3.939,-4.826 v -12.65 h 12.067 v -8.364 h -12.067 v -9.536 h -9.024 v 9.536 h -6.275 v 8.364 h 6.275 v 12.782 c 0,8.693 4.279,13.29 12.373,13.29 3.609,0 6.964,-1.084 10.256,-3.308 l 0.765,-0.515 -3.657,-7.37 z"
   id="path26" />
		<path
   fill="#666666"
   d="m 403.977,186.153 c -3.284,0 -5.855,2.603 -5.855,5.924 0,3.338 2.516,5.855 5.855,5.855 3.321,0 5.922,-2.573 5.922,-5.855 0,-3.322 -2.6,-5.924 -5.922,-5.924 z"
   id="path28" />
		<rect
   x="399.5"
   y="201.901"
   fill="#666666"
   width="9.0190001"
   height="33.613998"
   id="rect30" />
		<path
   fill="#666666"
   d="m 432.56,201.081 c -10.254,0 -17.986,7.578 -17.986,17.626 0,10.051 7.732,17.631 17.986,17.631 10.274,0 18.025,-7.58 18.025,-17.631 0,-10.048 -7.751,-17.626 -18.025,-17.626 z m 0,26.661 c -5.101,0 -8.802,-3.8 -8.802,-9.035 0,-5.235 3.7,-9.034 8.802,-9.034 5.12,0 8.839,3.799 8.839,9.034 0,5.235 -3.718,9.035 -8.839,9.035 z"
   id="path32" />
		<path
   fill="#666666"
   d="m 473.764,201.081 c -2.562,0 -5.898,0.566 -8.61,2.938 v -2.117 h -8.956 v 33.614 h 9.024 v -18.519 c 0,-5.356 3.821,-7.259 7.091,-7.259 4.047,0 6.272,2.555 6.272,7.193 v 18.584 h 9.024 V 214.66 c 0,-7.995 -5.695,-13.579 -13.845,-13.579 z"
   id="path34" />
		<path
   fill="#666666"
   d="m 510.837,214.605 -3.257,-0.495 c -3.589,-0.529 -4.29,-1.211 -4.29,-2.206 0,-1.986 2.526,-2.693 4.892,-2.693 3.496,0 7.205,1.312 9.172,2.536 l 0.943,0.59 3.98,-7.201 -0.83,-0.534 c -3.478,-2.252 -8.215,-3.487 -13.334,-3.487 -8.685,0 -14.078,4.272 -14.078,11.152 0,5.608 4.121,9.261 11.61,10.285 l 3.273,0.425 c 2.075,0.29 4.548,0.949 4.548,2.438 0,1.747 -2.283,2.787 -6.111,2.787 -5.17,0 -7.922,-1.603 -9.741,-3.002 l -0.932,-0.711 -4.314,6.982 0.779,0.581 c 4.981,3.698 11,4.251 14.143,4.251 9.353,0 15.395,-4.455 15.395,-11.349 0,-3.946 -2.056,-8.947 -11.848,-10.349 z"
   id="path36" />
	</g>
	<g
   id="g46">
		<path
   fill="#006ab3"
   d="m 329.24,111.841 c -1.681,27.175 -24.26,48.788 -51.853,48.788 -28.681,0 -52.016,-23.335 -52.016,-52.016 0,-28.681 23.335,-52.018 52.016,-52.018 27.667,0 50.295,21.732 51.864,49.015 h 9.789 V 49.084 h -8.998 V 77.032 C 319.274,59.149 299.734,47.127 277.387,47.127 c -33.904,0 -61.485,27.583 -61.485,61.487 0,33.903 27.581,61.485 61.485,61.485 22.347,0 41.887,-12.021 52.655,-29.903 v 28.173 h 8.998 v -56.527 h -9.8 z"
   id="path40" />
		<path
   fill="#006ab3"
   d="m 280.502,62.994 v 9.469 c 18.567,1.587 33.197,17.18 33.197,36.151 0,15.77 -10.124,29.186 -24.198,34.188 v -6.68 c 10.563,-4.671 17.962,-15.234 17.962,-27.508 0,-16.585 -13.491,-30.076 -30.076,-30.076 -16.585,0 -30.075,13.491 -30.075,30.076 0,12.273 7.4,22.837 17.962,27.508 v 6.68 c -14.076,-5.002 -24.199,-18.418 -24.199,-34.188 0,-18.971 14.631,-34.563 33.196,-36.151 v -9.469 c -23.791,1.609 -42.666,21.426 -42.666,45.62 0,24.193 18.875,44.01 42.666,45.62 v -4.928 -19.304 -1.099 c -9.876,-1.512 -17.49,-9.995 -17.49,-20.29 0,-11.362 9.244,-20.606 20.605,-20.606 11.364,0 20.606,9.245 20.606,20.606 0,10.295 -7.615,18.778 -17.491,20.29 v 1.099 19.304 4.928 c 23.792,-1.61 42.667,-21.427 42.667,-45.62 10e-4,-24.194 -18.874,-44.011 -42.666,-45.62 z"
   id="path42" />
		<path
   fill="#006ab3"
   d="m 291.759,108.614 c 0,-7.925 -6.449,-14.37 -14.372,-14.37 -7.922,0 -14.37,6.445 -14.37,14.37 0,7.925 6.448,14.37 14.37,14.37 7.923,-10e-4 14.372,-6.445 14.372,-14.37 z m -19.272,0 c 0,-2.702 2.198,-4.9 4.9,-4.9 2.703,0 4.902,2.198 4.902,4.9 0,2.702 -2.199,4.9 -4.902,4.9 -2.702,0 -4.9,-2.198 -4.9,-4.9 z"
   id="path44" />
	</g>
</g>
</svg>
